<svg xmlns="http://www.w3.org/2000/svg" xmlns:xlink="http://www.w3.org/1999/xlink" width="500" zoomAndPan="magnify" viewBox="0 0 375 374.999991" height="500" preserveAspectRatio="xMidYMid meet" version="1.0"><defs><clipPath id="e08bef0c08"><path d="M 120 83 L 301 83 L 301 249 L 120 249 Z M 120 83 " clip-rule="nonzero"/></clipPath><clipPath id="6e12cbdf4b"><path d="M 120.625 220.53125 L 276.132812 83.980469 L 300.769531 112.035156 L 145.261719 248.585938 Z M 120.625 220.53125 " clip-rule="nonzero"/></clipPath><clipPath id="962d02be68"><path d="M 198 112 L 352 112 L 352 300 L 198 300 Z M 198 112 " clip-rule="nonzero"/></clipPath><clipPath id="a1df9ac54d"><path d="M 265.582031 299.601562 L 198.699219 150.691406 L 284.898438 111.972656 L 351.78125 260.882812 Z M 265.582031 299.601562 " clip-rule="nonzero"/></clipPath><clipPath id="30f2a08961"><path d="M 32 19 L 244 19 L 244 228 L 32 228 Z M 32 19 " clip-rule="nonzero"/></clipPath><clipPath id="2de96f531e"><path d="M 105.707031 227.433594 L 32.011719 148.332031 L 170.132812 19.65625 L 243.824219 98.757812 Z M 105.707031 227.433594 " clip-rule="nonzero"/></clipPath><clipPath id="1479e9663d"><path d="M 80 249 L 244 249 L 244 303 L 80 303 Z M 80 249 " clip-rule="nonzero"/></clipPath><clipPath id="7b81f67018"><path d="M 79.71875 300.261719 L 80.703125 248.820312 L 243.867188 251.941406 L 242.882812 303.382812 Z M 79.71875 300.261719 " clip-rule="nonzero"/></clipPath><clipPath id="442e877a94"><path d="M 80.210938 274.539062 C 80.34375 267.71875 83.175781 261.230469 88.09375 256.496094 C 93.007812 251.765625 99.601562 249.183594 106.425781 249.3125 L 218.109375 251.449219 C 224.929688 251.582031 231.417969 254.414062 236.152344 259.332031 C 240.882812 264.246094 243.464844 270.839844 243.335938 277.664062 C 243.207031 284.484375 240.371094 290.972656 235.453125 295.707031 C 230.539062 300.4375 223.945312 303.019531 217.125 302.890625 L 105.441406 300.753906 C 98.617188 300.625 92.128906 297.789062 87.398438 292.871094 C 82.664062 287.957031 80.082031 281.363281 80.210938 274.539062 Z M 80.210938 274.539062 " clip-rule="nonzero"/></clipPath><clipPath id="9446b69e4c"><path d="M 61.078125 178.15625 L 120.628906 178.15625 L 120.628906 276.101562 L 61.078125 276.101562 Z M 61.078125 178.15625 " clip-rule="nonzero"/></clipPath><clipPath id="85c7ac31b0"><path d="M 163 198 L 234 198 L 234 267 L 163 267 Z M 163 198 " clip-rule="nonzero"/></clipPath><clipPath id="e9c3aa3dad"><path d="M 189.628906 266.710938 L 163.371094 237.324219 L 207.027344 198.3125 L 233.285156 227.695312 Z M 189.628906 266.710938 " clip-rule="nonzero"/></clipPath><clipPath id="d532fe7f57"><path d="M 157.660156 245.609375 L 239.714844 245.609375 L 239.714844 282.296875 L 157.660156 282.296875 Z M 157.660156 245.609375 " clip-rule="nonzero"/></clipPath><clipPath id="e9dc7d95fd"><path d="M 187 213 L 239 213 L 239 267 L 187 267 Z M 187 213 " clip-rule="nonzero"/></clipPath><clipPath id="e06d3c2331"><path d="M 187.5 230.246094 L 220.394531 213.992188 L 238.414062 250.464844 L 205.519531 266.714844 Z M 187.5 230.246094 " clip-rule="nonzero"/></clipPath></defs><g clip-path="url(#e08bef0c08)"><g clip-path="url(#6e12cbdf4b)"><path fill="#cb6ce6" d="M 120.625 220.53125 L 276.140625 83.96875 L 300.777344 112.027344 L 145.261719 248.585938 Z M 120.625 220.53125 " fill-opacity="1" fill-rule="nonzero"/></g></g><g clip-path="url(#962d02be68)"><g clip-path="url(#a1df9ac54d)"><path fill="#cb6ce6" d="M 265.582031 299.601562 L 198.734375 150.773438 L 284.933594 112.054688 L 351.78125 260.882812 Z M 265.582031 299.601562 " fill-opacity="1" fill-rule="nonzero"/></g></g><g clip-path="url(#30f2a08961)"><g clip-path="url(#2de96f531e)"><path fill="#8c52ff" d="M 105.707031 227.433594 L 32.011719 148.332031 L 170.132812 19.65625 L 243.824219 98.757812 Z M 105.707031 227.433594 " fill-opacity="1" fill-rule="nonzero"/></g></g><g clip-path="url(#1479e9663d)"><g clip-path="url(#7b81f67018)"><g clip-path="url(#442e877a94)"><path fill="#8c52ff" d="M 79.71875 300.261719 L 80.703125 248.820312 L 243.867188 251.941406 L 242.882812 303.382812 Z M 79.71875 300.261719 " fill-opacity="1" fill-rule="nonzero"/></g></g></g><g clip-path="url(#9446b69e4c)"><path fill="#8c52ff" d="M 61.078125 276.101562 L 61.078125 178.171875 L 120.628906 178.171875 L 120.628906 276.101562 Z M 61.078125 276.101562 " fill-opacity="1" fill-rule="nonzero"/></g><g clip-path="url(#85c7ac31b0)"><g clip-path="url(#e9c3aa3dad)"><path fill="#8c52ff" d="M 189.628906 266.710938 L 163.371094 237.324219 L 206.988281 198.34375 L 233.25 227.730469 Z M 189.628906 266.710938 " fill-opacity="1" fill-rule="nonzero"/></g></g><g clip-path="url(#d532fe7f57)"><path fill="#8c52ff" d="M 157.660156 282.296875 L 157.660156 245.609375 L 239.78125 245.609375 L 239.78125 282.296875 Z M 157.660156 282.296875 " fill-opacity="1" fill-rule="nonzero"/></g><g clip-path="url(#e9dc7d95fd)"><g clip-path="url(#e06d3c2331)"><path fill="#8c52ff" d="M 187.5 230.246094 L 220.394531 213.992188 L 238.421875 250.484375 L 205.53125 266.734375 Z M 187.5 230.246094 " fill-opacity="1" fill-rule="nonzero"/></g></g><path fill="#000000" d="M 173.902344 3.335938 C 157.230469 4.839844 138.695312 8.949219 123.714844 14.464844 C 60.390625 37.792969 13.839844 96.363281 5.222656 163.5625 C -2.238281 221.714844 17.664062 279.070312 59.4375 319.804688 C 86.992188 346.675781 123.59375 364.875 161.105469 370.359375 C 176.707031 372.636719 201.863281 372.632812 216.558594 370.347656 C 280.210938 360.449219 335.515625 317.21875 359.449219 258.65625 C 365.507812 243.839844 369.492188 229.417969 371.910156 213.59375 C 373.980469 200.03125 373.976562 175.578125 371.902344 161.660156 C 365.945312 121.664062 347.730469 85.179688 319.652344 57 C 291.097656 28.335938 252.53125 9.445312 212.039062 4.292969 C 202.796875 3.117188 182.105469 2.597656 173.902344 3.335938 M 92.328125 100.386719 C 92.316406 101.171875 92.179688 106.796875 92.019531 112.894531 C 91.859375 118.992188 91.941406 133.9375 92.195312 146.109375 L 92.660156 168.242188 L 102.484375 159.785156 C 107.886719 155.136719 113.519531 150.175781 115 148.765625 L 117.695312 146.199219 L 117.695312 124.929688 L 142.804688 124.929688 C 166.09375 124.929688 167.851562 125.003906 167.046875 125.976562 C 165.71875 127.570312 114.15625 172.484375 95.195312 188.554688 L 92.027344 191.242188 L 91.933594 231.710938 C 91.882812 253.96875 91.984375 273.105469 92.164062 274.234375 L 92.488281 276.292969 L 240.007812 276.292969 L 240.007812 274.976562 C 240.007812 273.511719 238.097656 265.695312 236.070312 258.878906 C 232.472656 246.757812 224.636719 229.640625 217.519531 218.34375 C 213.550781 212.046875 208.234375 204.769531 207.585938 204.742188 C 206.890625 204.71875 188.675781 220.535156 188.675781 221.167969 C 188.675781 221.378906 191.054688 225.148438 193.964844 229.542969 C 199.890625 238.5 205.417969 248.75 204.832031 249.703125 C 204.226562 250.679688 119.4375 250.550781 118.453125 249.566406 C 117.890625 249.003906 117.695312 243.027344 117.695312 226.59375 C 117.695312 207.207031 117.824219 204.191406 118.714844 202.921875 C 119.714844 201.492188 125.699219 196.199219 163.925781 162.929688 C 174.53125 153.695312 187.09375 142.722656 191.839844 138.542969 C 196.589844 134.363281 208.484375 123.960938 218.273438 115.429688 C 228.0625 106.894531 235.945312 99.699219 235.785156 99.4375 C 235.625 99.175781 203.289062 98.960938 163.921875 98.960938 L 92.34375 98.960938 Z M 257.710938 103.800781 C 254.769531 106.460938 246.378906 113.835938 239.058594 120.183594 C 231.738281 126.535156 222.042969 134.992188 217.507812 138.972656 C 212.976562 142.957031 194.441406 159.148438 176.316406 174.957031 C 158.191406 190.761719 141.292969 205.519531 138.765625 207.75 L 134.171875 211.808594 L 134.171875 233.859375 L 148.023438 233.859375 L 154.246094 228.300781 C 157.671875 225.242188 164.894531 218.910156 170.296875 214.230469 C 177.707031 207.800781 185.101562 201.34375 192.476562 194.871094 C 199.273438 188.898438 214.101562 175.9375 225.429688 166.066406 C 234.367188 158.28125 243.296875 150.492188 252.222656 142.695312 C 255.628906 139.714844 258.691406 137.183594 259.035156 137.066406 C 259.433594 136.929688 259.652344 149.09375 259.652344 171.238281 L 259.652344 205.617188 L 255.824219 199.402344 C 248.605469 187.695312 240.433594 176.238281 239.292969 176.230469 C 238.757812 176.226562 228.542969 185.050781 224.054688 189.398438 L 220.457031 192.875 L 223.660156 197.378906 C 229.21875 205.191406 234.679688 213.707031 238.121094 219.929688 C 245.53125 233.3125 252.527344 251.921875 255.503906 266.160156 C 256.414062 270.515625 257.3125 274.578125 257.5 275.1875 C 257.808594 276.195312 259.03125 276.292969 271.339844 276.292969 L 284.84375 276.292969 L 285.242188 274.316406 C 285.75 271.765625 285.761719 101.292969 285.253906 99.964844 C 284.921875 99.101562 283.324219 98.960938 273.960938 98.960938 L 263.050781 98.960938 Z M 257.710938 103.800781 " fill-opacity="1" fill-rule="evenodd"/></svg>